<svg width="93" height="93" viewBox="0 0 93 93" fill="none" xmlns="http://www.w3.org/2000/svg">
<g clip-path="url(#clip0_144_331)" filter="url(#filter0_d_144_331)">
<g filter="url(#filter1_d_144_331)">
<path d="M47.5652 79.4478C31.6099 79.4478 18.5027 66.8036 18.5027 50.5751C18.5027 46.5916 18.7061 42.3214 20.9149 35.6835C23.1236 29.0456 23.5673 28.1893 25.902 24.0895C26.8998 32.4537 32.2376 35.9412 33.5939 36.9836C33.5939 35.8986 36.8217 23.9113 41.7178 16.7367C46.5247 9.69775 53.0619 5.08069 56.8942 1.94775C56.8942 7.89588 58.5663 16.7386 60.963 21.2453C63.3577 25.7499 63.8072 25.9146 66.8007 29.2665C69.7922 32.6184 71.1659 33.6549 73.6691 37.7237C76.1704 41.7924 76.6277 47.2116 76.6277 51.1951C76.6277 67.4236 63.5205 79.4478 47.5652 79.4478Z" fill="url(#paint0_linear_144_331)"/>
</g>
<g filter="url(#filter2_d_144_331)">
<path d="M69.9935 64.5156L70.2942 65.4409H71.267L70.48 66.0127L70.7806 66.9379L69.9935 66.3661L69.2065 66.9379L69.5071 66.0127L68.7201 65.4409H69.6929L69.9935 64.5156Z" fill="white"/>
</g>
<g filter="url(#filter3_d_144_331)">
<path d="M60.8923 40.1411L61.2808 39.2492L60.5526 38.6041L61.5209 38.698L61.9094 37.8061L62.1193 38.756L63.0876 38.8499L62.2491 39.3431L62.459 40.293L61.7308 39.6479L60.8923 40.1411Z" fill="white"/>
</g>
<path d="M62.9332 46.2566L63.2339 47.1818H64.2067L63.4197 47.7536L63.7203 48.6789L62.9332 48.1071L62.1462 48.6789L62.4468 47.7536L61.6598 47.1818H62.6326L62.9332 46.2566Z" fill="white"/>
<path d="M60.2553 60.377L60.5559 61.3022H61.5287L60.7417 61.874L61.0423 62.7992L60.2553 62.2274L59.4682 62.7992L59.7688 61.874L58.9818 61.3022H59.9546L60.2553 60.377Z" fill="white"/>
<path d="M49.8849 62.5244L50.2734 61.6325L49.5452 60.9874L50.5135 61.0813L50.902 60.1894L51.112 61.1393L52.0803 61.2332L51.2417 61.7264L51.4517 62.6763L50.7235 62.0312L49.8849 62.5244Z" fill="white"/>
<path d="M56.6034 71.8193L56.904 72.7446H57.8769L57.0898 73.3164L57.3905 74.2416L56.6034 73.6698L55.8164 74.2416L56.117 73.3164L55.3299 72.7446H56.3028L56.6034 71.8193Z" fill="white"/>
<path d="M38.0854 64.7674L38.4739 63.8755L37.7457 63.2304L38.714 63.3242L39.1025 62.4323L39.3124 63.3823L40.2807 63.4761L39.4422 63.9693L39.6521 64.9193L38.9239 64.2742L38.0854 64.7674Z" fill="white"/>
<path d="M38.8312 70.6021L39.1318 71.5273H40.1047L39.3176 72.0991L39.6182 73.0243L38.8312 72.4525L38.0441 73.0243L38.3448 72.0991L37.5577 71.5273H38.5306L38.8312 70.6021Z" fill="white"/>
<g filter="url(#filter4_d_144_331)">
<path d="M23.1567 54.5049L23.5452 53.613L22.817 52.9679L23.7853 53.0618L24.1738 52.1699L24.3837 53.1198L25.352 53.2137L24.5135 53.7069L24.7234 54.6568L23.9952 54.0117L23.1567 54.5049Z" fill="white"/>
</g>
<g filter="url(#filter5_d_144_331)">
<path d="M36.2284 44.0821L36.6169 43.1902L35.8887 42.5451L36.8571 42.6389L37.2456 41.747L37.4555 42.697L38.4238 42.7908L37.5852 43.284L37.7952 44.234L37.067 43.5889L36.2284 44.0821Z" fill="white"/>
</g>
<g filter="url(#filter6_d_144_331)">
<path d="M24.7108 32.1362L25.0115 33.0615H25.9843L25.1973 33.6333L25.4979 34.5585L24.7108 33.9867L23.9238 34.5585L24.2244 33.6333L23.4374 33.0615H24.4102L24.7108 32.1362Z" fill="white"/>
</g>
<g filter="url(#filter7_d_144_331)">
<path d="M45.5546 46.7144L45.9431 45.8225L45.2149 45.1774L46.1832 45.2713L46.5717 44.3794L46.7817 45.3293L47.75 45.4232L46.9114 45.9164L47.1214 46.8663L46.3932 46.2212L45.5546 46.7144Z" fill="white"/>
</g>
<g filter="url(#filter8_d_144_331)">
<path d="M32.5014 63.0549L32.802 63.9802H33.7748L32.9878 64.552L33.2884 65.4772L32.5014 64.9054L31.7143 65.4772L32.0149 64.552L31.2279 63.9802H32.2007L32.5014 63.0549Z" fill="white"/>
</g>
<g filter="url(#filter9_d_144_331)">
<path d="M49.9369 20.1778L50.3254 19.2859L49.5972 18.6408L50.5655 18.7346L50.9541 17.8427L51.164 18.7927L52.1323 18.8865L51.2937 19.3797L51.5037 20.3297L50.7755 19.6846L49.9369 20.1778Z" fill="white"/>
</g>
<path d="M73.3289 42.8635C73.3138 42.7903 73.2782 42.723 73.2263 42.6694C73.1743 42.6158 73.1082 42.5782 73.0356 42.5609C68.1976 41.3769 57.0191 45.5959 50.9627 51.6553C49.8825 52.7278 48.8977 53.8924 48.0196 55.136C46.1519 54.9707 44.2843 55.1088 42.6925 55.8032C38.2015 57.7817 36.8939 62.9441 36.5296 65.1648C36.5089 65.2863 36.5167 65.411 36.5524 65.529C36.588 65.647 36.6505 65.7552 36.735 65.8449C36.8194 65.9347 36.9235 66.0036 37.0391 66.0462C37.1547 66.0889 37.2786 66.1041 37.401 66.0907L44.613 65.2946C44.6182 65.8388 44.651 66.3824 44.7113 66.9233C44.7476 67.2989 44.9142 67.6499 45.1822 67.9154L47.975 70.7041C48.2404 70.972 48.591 71.1386 48.9662 71.1754C49.5036 71.2355 50.0437 71.2684 50.5844 71.2738L49.793 78.4832C49.7798 78.6057 49.7952 78.7297 49.8378 78.8452C49.8805 78.9608 49.9494 79.065 50.039 79.1495C50.1286 79.234 50.2366 79.2966 50.3544 79.3323C50.4723 79.368 50.5968 79.3759 50.7182 79.3554C52.9327 78.9999 58.0995 77.6912 60.0646 73.196C60.7585 71.6028 60.9005 69.7426 60.7403 67.8824C61.9858 67.0034 63.1524 66.0174 64.2269 64.9357C70.3023 58.8854 74.4936 47.9464 73.3289 42.8635ZM58.1656 57.718C57.6108 57.1631 57.233 56.456 57.0798 55.6861C56.9266 54.9163 57.0049 54.1182 57.3049 53.3929C57.605 52.6676 58.1131 52.0476 58.7652 51.6115C59.4173 51.1753 60.184 50.9425 60.9683 50.9425C61.7526 50.9425 62.5193 51.1753 63.1713 51.6115C63.8234 52.0476 64.3316 52.6676 64.6316 53.3929C64.9316 54.1182 65.01 54.9163 64.8568 55.6861C64.7036 56.456 64.3257 57.1631 63.771 57.718C63.4031 58.0868 62.9662 58.3793 62.4853 58.5789C62.0044 58.7785 61.4889 58.8812 60.9683 58.8812C60.4477 58.8812 59.9322 58.7785 59.4513 58.5789C58.9703 58.3793 58.5335 58.0868 58.1656 57.718Z" fill="white"/>
<path d="M73.3289 42.8635C73.3138 42.7903 73.2782 42.723 73.2263 42.6694C73.1743 42.6158 73.1082 42.5782 73.0356 42.5609C68.1976 41.3769 57.0191 45.5959 50.9627 51.6553C49.8825 52.7278 48.8977 53.8924 48.0196 55.136C46.1519 54.9707 44.2843 55.1088 42.6925 55.8032C38.2015 57.7817 36.8939 62.9441 36.5296 65.1648C36.5089 65.2863 36.5167 65.411 36.5524 65.529C36.588 65.647 36.6505 65.7552 36.735 65.8449C36.8194 65.9347 36.9235 66.0036 37.0391 66.0462C37.1547 66.0889 37.2786 66.1041 37.401 66.0907L44.613 65.2946C44.6182 65.8388 44.651 66.3824 44.7113 66.9233C44.7476 67.2989 44.9142 67.6499 45.1822 67.9154L47.975 70.7041C48.2404 70.972 48.591 71.1386 48.9662 71.1754C49.5036 71.2355 50.0437 71.2684 50.5844 71.2738L49.793 78.4832C49.7798 78.6057 49.7952 78.7297 49.8378 78.8452C49.8805 78.9608 49.9494 79.065 50.039 79.1495C50.1286 79.234 50.2366 79.2966 50.3544 79.3323C50.4723 79.368 50.5968 79.3759 50.7182 79.3554C52.9327 78.9999 58.0995 77.6912 60.0646 73.196C60.7585 71.6028 60.9005 69.7426 60.7403 67.8824C61.9858 67.0034 63.1524 66.0174 64.2269 64.9357C70.3023 58.8854 74.4936 47.9464 73.3289 42.8635ZM58.1656 57.718C57.6108 57.1631 57.233 56.456 57.0798 55.6861C56.9266 54.9163 57.0049 54.1182 57.3049 53.3929C57.605 52.6676 58.1131 52.0476 58.7652 51.6115C59.4173 51.1753 60.184 50.9425 60.9683 50.9425C61.7526 50.9425 62.5193 51.1753 63.1713 51.6115C63.8234 52.0476 64.3316 52.6676 64.6316 53.3929C64.9316 54.1182 65.01 54.9163 64.8568 55.6861C64.7036 56.456 64.3257 57.1631 63.771 57.718C63.4031 58.0868 62.9662 58.3793 62.4853 58.5789C62.0044 58.7785 61.4889 58.8812 60.9683 58.8812C60.4477 58.8812 59.9322 58.7785 59.4513 58.5789C58.9703 58.3793 58.5335 58.0868 58.1656 57.718Z" stroke="black"/>
<path d="M47.8101 72.5019C47.3516 72.9614 46.6161 73.1405 45.7308 73.2936C43.7418 73.6325 41.9855 71.9136 42.3428 69.9026C42.4791 69.1402 42.8825 68.0715 43.1335 67.8204C43.1884 67.7666 43.2249 67.6969 43.2379 67.6211C43.2509 67.5454 43.2396 67.4674 43.2058 67.3984C43.172 67.3294 43.1173 67.2728 43.0495 67.2366C42.9817 67.2005 42.9042 67.1866 42.8281 67.197C41.7158 67.3331 40.6811 67.8374 39.8886 68.6297C37.9214 70.5989 37.7356 77.9056 37.7356 77.9056C37.7356 77.9056 45.0455 77.7199 47.0127 75.7507C47.8073 74.9587 48.3122 73.9222 48.446 72.8082C48.477 72.4584 48.0511 72.25 47.8101 72.5019Z" fill="white"/>
</g>
<defs>
<filter id="filter0_d_144_331" x="-4.1" y="-0.0999999" width="101.2" height="101.2" filterUnits="userSpaceOnUse" color-interpolation-filters="sRGB">
<feFlood flood-opacity="0" result="BackgroundImageFix"/>
<feColorMatrix in="SourceAlpha" type="matrix" values="0 0 0 0 0 0 0 0 0 0 0 0 0 0 0 0 0 0 127 0" result="hardAlpha"/>
<feOffset dy="4"/>
<feGaussianBlur stdDeviation="2.05"/>
<feComposite in2="hardAlpha" operator="out"/>
<feColorMatrix type="matrix" values="0 0 0 0 0 0 0 0 0 0 0 0 0 0 0 0 0 0 0.25 0"/>
<feBlend mode="normal" in2="BackgroundImageFix" result="effect1_dropShadow_144_331"/>
<feBlend mode="normal" in="SourceGraphic" in2="effect1_dropShadow_144_331" result="shape"/>
</filter>
<filter id="filter1_d_144_331" x="18.5027" y="0.447754" width="74.625" height="90.5" filterUnits="userSpaceOnUse" color-interpolation-filters="sRGB">
<feFlood flood-opacity="0" result="BackgroundImageFix"/>
<feColorMatrix in="SourceAlpha" type="matrix" values="0 0 0 0 0 0 0 0 0 0 0 0 0 0 0 0 0 0 127 0" result="hardAlpha"/>
<feOffset dx="10" dy="5"/>
<feGaussianBlur stdDeviation="3.25"/>
<feComposite in2="hardAlpha" operator="out"/>
<feColorMatrix type="matrix" values="0 0 0 0 0 0 0 0 0 0 0 0 0 0 0 0 0 0 0.25 0"/>
<feBlend mode="normal" in2="BackgroundImageFix" result="effect1_dropShadow_144_331"/>
<feBlend mode="normal" in="SourceGraphic" in2="effect1_dropShadow_144_331" result="shape"/>
</filter>
<filter id="filter2_d_144_331" x="58.12" y="53.9156" width="23.7471" height="23.6224" filterUnits="userSpaceOnUse" color-interpolation-filters="sRGB">
<feFlood flood-opacity="0" result="BackgroundImageFix"/>
<feColorMatrix in="SourceAlpha" type="matrix" values="0 0 0 0 0 0 0 0 0 0 0 0 0 0 0 0 0 0 127 0" result="hardAlpha"/>
<feOffset/>
<feGaussianBlur stdDeviation="5.3"/>
<feComposite in2="hardAlpha" operator="out"/>
<feColorMatrix type="matrix" values="0 0 0 0 1 0 0 0 0 1 0 0 0 0 1 0 0 0 1 0"/>
<feBlend mode="normal" in2="BackgroundImageFix" result="effect1_dropShadow_144_331"/>
<feBlend mode="normal" in="SourceGraphic" in2="effect1_dropShadow_144_331" result="shape"/>
</filter>
<filter id="filter3_d_144_331" x="49.9525" y="27.2062" width="23.7352" height="23.6868" filterUnits="userSpaceOnUse" color-interpolation-filters="sRGB">
<feFlood flood-opacity="0" result="BackgroundImageFix"/>
<feColorMatrix in="SourceAlpha" type="matrix" values="0 0 0 0 0 0 0 0 0 0 0 0 0 0 0 0 0 0 127 0" result="hardAlpha"/>
<feOffset/>
<feGaussianBlur stdDeviation="5.3"/>
<feComposite in2="hardAlpha" operator="out"/>
<feColorMatrix type="matrix" values="0 0 0 0 1 0 0 0 0 1 0 0 0 0 1 0 0 0 1 0"/>
<feBlend mode="normal" in2="BackgroundImageFix" result="effect1_dropShadow_144_331"/>
<feBlend mode="normal" in="SourceGraphic" in2="effect1_dropShadow_144_331" result="shape"/>
</filter>
<filter id="filter4_d_144_331" x="12.2169" y="41.5699" width="23.7352" height="23.6868" filterUnits="userSpaceOnUse" color-interpolation-filters="sRGB">
<feFlood flood-opacity="0" result="BackgroundImageFix"/>
<feColorMatrix in="SourceAlpha" type="matrix" values="0 0 0 0 0 0 0 0 0 0 0 0 0 0 0 0 0 0 127 0" result="hardAlpha"/>
<feOffset/>
<feGaussianBlur stdDeviation="5.3"/>
<feComposite in2="hardAlpha" operator="out"/>
<feColorMatrix type="matrix" values="0 0 0 0 1 0 0 0 0 1 0 0 0 0 1 0 0 0 1 0"/>
<feBlend mode="normal" in2="BackgroundImageFix" result="effect1_dropShadow_144_331"/>
<feBlend mode="normal" in="SourceGraphic" in2="effect1_dropShadow_144_331" result="shape"/>
</filter>
<filter id="filter5_d_144_331" x="25.2887" y="31.1471" width="23.7352" height="23.6868" filterUnits="userSpaceOnUse" color-interpolation-filters="sRGB">
<feFlood flood-opacity="0" result="BackgroundImageFix"/>
<feColorMatrix in="SourceAlpha" type="matrix" values="0 0 0 0 0 0 0 0 0 0 0 0 0 0 0 0 0 0 127 0" result="hardAlpha"/>
<feOffset/>
<feGaussianBlur stdDeviation="5.3"/>
<feComposite in2="hardAlpha" operator="out"/>
<feColorMatrix type="matrix" values="0 0 0 0 1 0 0 0 0 1 0 0 0 0 1 0 0 0 1 0"/>
<feBlend mode="normal" in2="BackgroundImageFix" result="effect1_dropShadow_144_331"/>
<feBlend mode="normal" in="SourceGraphic" in2="effect1_dropShadow_144_331" result="shape"/>
</filter>
<filter id="filter6_d_144_331" x="12.8373" y="21.5362" width="23.7471" height="23.6224" filterUnits="userSpaceOnUse" color-interpolation-filters="sRGB">
<feFlood flood-opacity="0" result="BackgroundImageFix"/>
<feColorMatrix in="SourceAlpha" type="matrix" values="0 0 0 0 0 0 0 0 0 0 0 0 0 0 0 0 0 0 127 0" result="hardAlpha"/>
<feOffset/>
<feGaussianBlur stdDeviation="5.3"/>
<feComposite in2="hardAlpha" operator="out"/>
<feColorMatrix type="matrix" values="0 0 0 0 1 0 0 0 0 1 0 0 0 0 1 0 0 0 1 0"/>
<feBlend mode="normal" in2="BackgroundImageFix" result="effect1_dropShadow_144_331"/>
<feBlend mode="normal" in="SourceGraphic" in2="effect1_dropShadow_144_331" result="shape"/>
</filter>
<filter id="filter7_d_144_331" x="34.6148" y="33.7794" width="23.7352" height="23.6868" filterUnits="userSpaceOnUse" color-interpolation-filters="sRGB">
<feFlood flood-opacity="0" result="BackgroundImageFix"/>
<feColorMatrix in="SourceAlpha" type="matrix" values="0 0 0 0 0 0 0 0 0 0 0 0 0 0 0 0 0 0 127 0" result="hardAlpha"/>
<feOffset/>
<feGaussianBlur stdDeviation="5.3"/>
<feComposite in2="hardAlpha" operator="out"/>
<feColorMatrix type="matrix" values="0 0 0 0 1 0 0 0 0 1 0 0 0 0 1 0 0 0 1 0"/>
<feBlend mode="normal" in2="BackgroundImageFix" result="effect1_dropShadow_144_331"/>
<feBlend mode="normal" in="SourceGraphic" in2="effect1_dropShadow_144_331" result="shape"/>
</filter>
<filter id="filter8_d_144_331" x="20.6278" y="52.4549" width="23.7471" height="23.6224" filterUnits="userSpaceOnUse" color-interpolation-filters="sRGB">
<feFlood flood-opacity="0" result="BackgroundImageFix"/>
<feColorMatrix in="SourceAlpha" type="matrix" values="0 0 0 0 0 0 0 0 0 0 0 0 0 0 0 0 0 0 127 0" result="hardAlpha"/>
<feOffset/>
<feGaussianBlur stdDeviation="5.3"/>
<feComposite in2="hardAlpha" operator="out"/>
<feColorMatrix type="matrix" values="0 0 0 0 1 0 0 0 0 1 0 0 0 0 1 0 0 0 1 0"/>
<feBlend mode="normal" in2="BackgroundImageFix" result="effect1_dropShadow_144_331"/>
<feBlend mode="normal" in="SourceGraphic" in2="effect1_dropShadow_144_331" result="shape"/>
</filter>
<filter id="filter9_d_144_331" x="38.9972" y="7.24277" width="23.7352" height="23.6868" filterUnits="userSpaceOnUse" color-interpolation-filters="sRGB">
<feFlood flood-opacity="0" result="BackgroundImageFix"/>
<feColorMatrix in="SourceAlpha" type="matrix" values="0 0 0 0 0 0 0 0 0 0 0 0 0 0 0 0 0 0 127 0" result="hardAlpha"/>
<feOffset/>
<feGaussianBlur stdDeviation="5.3"/>
<feComposite in2="hardAlpha" operator="out"/>
<feColorMatrix type="matrix" values="0 0 0 0 1 0 0 0 0 1 0 0 0 0 1 0 0 0 1 0"/>
<feBlend mode="normal" in2="BackgroundImageFix" result="effect1_dropShadow_144_331"/>
<feBlend mode="normal" in="SourceGraphic" in2="effect1_dropShadow_144_331" result="shape"/>
</filter>
<linearGradient id="paint0_linear_144_331" x1="47.5652" y1="1.94775" x2="47.5652" y2="79.4478" gradientUnits="userSpaceOnUse">
<stop offset="0.095" stop-color="#FFF50D"/>
<stop offset="0.4" stop-color="#FFB800"/>
<stop offset="0.59" stop-color="#FA3E02"/>
<stop offset="0.84" stop-color="#7D0303"/>
<stop offset="0.97"/>
</linearGradient>
<clipPath id="clip0_144_331">
<rect width="93" height="93" fill="white" transform="matrix(-1 0 0 1 93 0)"/>
</clipPath>
</defs>
</svg>
