<svg width="248" height="93" viewBox="0 0 248 93" fill="none" xmlns="http://www.w3.org/2000/svg">
<g filter="url(#filter0_d_156_481)">
<path d="M47.5652 79.4476C31.6099 79.4476 18.5027 66.8035 18.5027 50.575C18.5027 46.5915 18.7061 42.3213 20.9149 35.6834C23.1236 29.0455 23.5673 28.1891 25.902 24.0894C26.8998 32.4536 32.2376 35.9411 33.5939 36.9834C33.5939 35.8984 36.8217 23.9111 41.7178 16.7366C46.5247 9.69763 53.0619 5.08057 56.8942 1.94763C56.8942 7.89576 58.5663 16.7385 60.963 21.2451C63.3577 25.7498 63.8072 25.9145 66.8007 29.2664C69.7922 32.6183 71.1659 33.6548 73.6691 37.7236C76.1704 41.7923 76.6277 47.2115 76.6277 51.195C76.6277 67.4235 63.5205 79.4476 47.5652 79.4476Z" fill="url(#paint0_linear_156_481)"/>
<g filter="url(#filter1_d_156_481)">
<path d="M69.9935 64.5156L70.2942 65.4409H71.267L70.48 66.0127L70.7806 66.9379L69.9935 66.3661L69.2065 66.9379L69.5071 66.0127L68.7201 65.4409H69.6929L69.9935 64.5156Z" fill="white"/>
</g>
<g filter="url(#filter2_d_156_481)">
<path d="M60.8923 40.1411L61.2808 39.2492L60.5526 38.6041L61.5209 38.698L61.9094 37.8061L62.1193 38.756L63.0876 38.8499L62.2491 39.3431L62.459 40.293L61.7308 39.6479L60.8923 40.1411Z" fill="white"/>
</g>
<path d="M62.9332 46.2566L63.2339 47.1818H64.2067L63.4197 47.7536L63.7203 48.6789L62.9332 48.1071L62.1462 48.6789L62.4468 47.7536L61.6598 47.1818H62.6326L62.9332 46.2566Z" fill="white"/>
<path d="M60.2553 60.377L60.5559 61.3022H61.5287L60.7417 61.874L61.0423 62.7992L60.2553 62.2274L59.4682 62.7992L59.7688 61.874L58.9818 61.3022H59.9546L60.2553 60.377Z" fill="white"/>
<path d="M49.8849 62.5244L50.2734 61.6325L49.5452 60.9874L50.5135 61.0813L50.902 60.1894L51.112 61.1393L52.0803 61.2332L51.2417 61.7264L51.4517 62.6763L50.7235 62.0312L49.8849 62.5244Z" fill="white"/>
<path d="M56.6034 71.8193L56.904 72.7446H57.8769L57.0898 73.3164L57.3905 74.2416L56.6034 73.6698L55.8164 74.2416L56.117 73.3164L55.3299 72.7446H56.3028L56.6034 71.8193Z" fill="white"/>
<path d="M38.0854 64.7674L38.4739 63.8755L37.7457 63.2304L38.714 63.3242L39.1025 62.4323L39.3124 63.3823L40.2807 63.4761L39.4422 63.9693L39.6521 64.9193L38.9239 64.2742L38.0854 64.7674Z" fill="white"/>
<path d="M38.8312 70.6021L39.1318 71.5273H40.1047L39.3176 72.0991L39.6182 73.0243L38.8312 72.4525L38.0441 73.0243L38.3448 72.0991L37.5577 71.5273H38.5306L38.8312 70.6021Z" fill="white"/>
<g filter="url(#filter3_d_156_481)">
<path d="M23.1567 54.5049L23.5452 53.613L22.817 52.9679L23.7853 53.0618L24.1738 52.1699L24.3837 53.1198L25.352 53.2137L24.5135 53.7069L24.7234 54.6568L23.9952 54.0117L23.1567 54.5049Z" fill="white"/>
</g>
<g filter="url(#filter4_d_156_481)">
<path d="M36.2284 44.0821L36.6169 43.1902L35.8887 42.5451L36.8571 42.6389L37.2456 41.747L37.4555 42.697L38.4238 42.7908L37.5852 43.284L37.7952 44.234L37.067 43.5889L36.2284 44.0821Z" fill="white"/>
</g>
<g filter="url(#filter5_d_156_481)">
<path d="M24.7108 32.1362L25.0115 33.0615H25.9843L25.1973 33.6333L25.4979 34.5585L24.7108 33.9867L23.9238 34.5585L24.2244 33.6333L23.4374 33.0615H24.4102L24.7108 32.1362Z" fill="white"/>
</g>
<g filter="url(#filter6_d_156_481)">
<path d="M45.5546 46.7144L45.9431 45.8225L45.2149 45.1774L46.1832 45.2713L46.5717 44.3794L46.7817 45.3293L47.75 45.4232L46.9114 45.9164L47.1214 46.8663L46.3932 46.2212L45.5546 46.7144Z" fill="white"/>
</g>
<g filter="url(#filter7_d_156_481)">
<path d="M32.5014 63.0549L32.802 63.9802H33.7748L32.9878 64.552L33.2884 65.4772L32.5014 64.9054L31.7143 65.4772L32.0149 64.552L31.2279 63.9802H32.2007L32.5014 63.0549Z" fill="white"/>
</g>
<g filter="url(#filter8_d_156_481)">
<path d="M49.9369 20.1778L50.3254 19.2859L49.5972 18.6408L50.5655 18.7346L50.9541 17.8427L51.164 18.7927L52.1323 18.8865L51.2937 19.3797L51.5037 20.3297L50.7755 19.6846L49.9369 20.1778Z" fill="white"/>
</g>
<path d="M73.3289 42.8635C73.3138 42.7903 73.2782 42.723 73.2263 42.6694C73.1743 42.6158 73.1082 42.5782 73.0356 42.5609C68.1976 41.3769 57.0191 45.5959 50.9627 51.6553C49.8825 52.7278 48.8977 53.8924 48.0196 55.136C46.1519 54.9707 44.2843 55.1088 42.6925 55.8032C38.2015 57.7817 36.8939 62.9441 36.5296 65.1648C36.5089 65.2863 36.5167 65.411 36.5524 65.529C36.588 65.647 36.6505 65.7552 36.735 65.8449C36.8194 65.9347 36.9235 66.0036 37.0391 66.0462C37.1547 66.0889 37.2786 66.1041 37.401 66.0907L44.613 65.2946C44.6182 65.8388 44.651 66.3824 44.7113 66.9233C44.7476 67.2989 44.9142 67.6499 45.1822 67.9154L47.975 70.7041C48.2404 70.972 48.591 71.1386 48.9662 71.1754C49.5036 71.2355 50.0437 71.2684 50.5844 71.2738L49.793 78.4832C49.7798 78.6057 49.7952 78.7297 49.8378 78.8453C49.8805 78.9609 49.9494 79.065 50.039 79.1495C50.1286 79.234 50.2366 79.2966 50.3544 79.3323C50.4723 79.368 50.5968 79.376 50.7182 79.3554C52.9327 78.9999 58.0995 77.6912 60.0646 73.196C60.7585 71.6028 60.9005 69.7426 60.7403 67.8824C61.9858 67.0034 63.1524 66.0174 64.2269 64.9357C70.3023 58.8854 74.4936 47.9464 73.3289 42.8635ZM58.1656 57.718C57.6108 57.1631 57.2329 56.456 57.0798 55.6861C56.9266 54.9163 57.0049 54.1182 57.3049 53.3929C57.605 52.6676 58.1131 52.0476 58.7652 51.6115C59.4173 51.1753 60.184 50.9425 60.9683 50.9425C61.7526 50.9425 62.5193 51.1753 63.1713 51.6115C63.8234 52.0476 64.3316 52.6676 64.6316 53.3929C64.9316 54.1182 65.01 54.9163 64.8568 55.6861C64.7036 56.456 64.3257 57.1631 63.771 57.718C63.4031 58.0868 62.9662 58.3793 62.4853 58.5789C62.0044 58.7785 61.4889 58.8812 60.9683 58.8812C60.4477 58.8812 59.9322 58.7785 59.4513 58.5789C58.9703 58.3793 58.5335 58.0868 58.1656 57.718Z" fill="white"/>
<path d="M47.8101 72.5019C47.3516 72.9614 46.6161 73.1405 45.7308 73.2936C43.7418 73.6325 41.9855 71.9136 42.3428 69.9026C42.4791 69.1402 42.8825 68.0715 43.1335 67.8204C43.1884 67.7666 43.2249 67.6969 43.2379 67.6211C43.2509 67.5454 43.2396 67.4674 43.2058 67.3984C43.172 67.3294 43.1173 67.2728 43.0495 67.2366C42.9817 67.2005 42.9042 67.1866 42.8281 67.197C41.7158 67.3331 40.6811 67.8374 39.8886 68.6297C37.9214 70.5989 37.7356 77.9056 37.7356 77.9056C37.7356 77.9056 45.0455 77.7199 47.0127 75.7507C47.8073 74.9587 48.3122 73.9222 48.446 72.8082C48.477 72.4584 48.0511 72.25 47.8101 72.5019Z" fill="white"/>
</g>
<path d="M102.105 61H98.0449C97.9395 61 97.8867 60.9414 97.8867 60.8242V40.293H93.2109C93.0938 40.293 93.0352 40.2344 93.0352 40.1172L93.0703 36.0918C93.0703 35.998 93.1172 35.9512 93.2109 35.9512H106.887C107.016 35.9512 107.08 35.998 107.08 36.0918V40.1172C107.08 40.2344 107.033 40.293 106.939 40.293H102.211L102.246 60.8242C102.246 60.9414 102.199 61 102.105 61ZM114.41 61.3516C113.133 61.3516 111.955 61.0234 110.877 60.3672C109.811 59.7109 108.949 58.8379 108.293 57.748C107.648 56.6465 107.326 55.4395 107.326 54.127L107.361 42.7188C107.361 41.3828 107.684 40.1816 108.328 39.1152C108.961 38.0371 109.816 37.1758 110.895 36.5312C111.973 35.875 113.145 35.5469 114.41 35.5469C115.723 35.5469 116.9 35.8691 117.943 36.5137C118.998 37.1582 119.842 38.0254 120.475 39.1152C121.119 40.1934 121.441 41.3945 121.441 42.7188L121.477 54.127C121.477 55.4395 121.16 56.6406 120.527 57.7305C119.883 58.832 119.027 59.7109 117.961 60.3672C116.895 61.0234 115.711 61.3516 114.41 61.3516ZM114.41 57.0098C115.137 57.0098 115.77 56.7168 116.309 56.1309C116.848 55.5332 117.117 54.8652 117.117 54.127L117.082 42.7188C117.082 41.9219 116.83 41.248 116.326 40.6973C115.822 40.1465 115.184 39.8711 114.41 39.8711C113.672 39.8711 113.039 40.1406 112.512 40.6797C111.984 41.2188 111.721 41.8984 111.721 42.7188V54.127C111.721 54.9121 111.984 55.5918 112.512 56.166C113.039 56.7285 113.672 57.0098 114.41 57.0098ZM128.42 61H124.342C124.248 61 124.201 60.9414 124.201 60.8242L124.271 36.0918C124.271 35.998 124.318 35.9512 124.412 35.9512H131.689C132.99 35.9512 134.186 36.2676 135.275 36.9004C136.365 37.5332 137.232 38.3828 137.877 39.4492C138.533 40.5156 138.861 41.7227 138.861 43.0703C138.861 43.9492 138.727 44.7461 138.457 45.4609C138.188 46.1758 137.871 46.7793 137.508 47.2715C137.156 47.7637 136.834 48.127 136.541 48.3613C137.842 49.8027 138.492 51.4961 138.492 53.4414L138.527 60.8242C138.527 60.9414 138.469 61 138.352 61H134.273C134.18 61 134.133 60.9648 134.133 60.8945V53.4414C134.133 52.5742 133.828 51.8242 133.219 51.1914C132.609 50.5586 131.859 50.2422 130.969 50.2422H128.596L128.561 60.8242C128.561 60.9414 128.514 61 128.42 61ZM131.689 40.2578H128.596V45.918H131.689C132.428 45.918 133.084 45.6426 133.658 45.0918C134.244 44.541 134.537 43.8672 134.537 43.0703C134.537 42.3086 134.256 41.6523 133.693 41.1016C133.131 40.5391 132.463 40.2578 131.689 40.2578ZM148.195 61.3516C146.895 61.3516 145.705 61.0234 144.627 60.3672C143.561 59.7109 142.711 58.832 142.078 57.7305C141.457 56.6172 141.146 55.3809 141.146 54.0215L141.182 42.7891C141.182 41.4531 141.486 40.2461 142.096 39.168C142.705 38.0781 143.543 37.2051 144.609 36.5488C145.688 35.8809 146.883 35.5469 148.195 35.5469C149.531 35.5469 150.721 35.8691 151.764 36.5137C152.818 37.1582 153.656 38.0312 154.277 39.1328C154.91 40.2227 155.227 41.4414 155.227 42.7891V44.4414C155.227 44.5352 155.18 44.582 155.086 44.582H151.043C150.949 44.582 150.902 44.5352 150.902 44.4414V42.7891C150.902 41.9922 150.645 41.3066 150.129 40.7324C149.613 40.1582 148.969 39.8711 148.195 39.8711C147.34 39.8711 146.684 40.1641 146.227 40.75C145.77 41.3359 145.541 42.0156 145.541 42.7891V54.0215C145.541 54.9004 145.799 55.6211 146.314 56.1836C146.83 56.7344 147.457 57.0098 148.195 57.0098C148.969 57.0098 149.613 56.7051 150.129 56.0957C150.645 55.4746 150.902 54.7832 150.902 54.0215V52.3516C150.902 52.2578 150.949 52.2109 151.043 52.2109H155.121C155.215 52.2109 155.262 52.2578 155.262 52.3516V54.0215C155.262 55.3691 154.945 56.5996 154.312 57.7129C153.668 58.8145 152.818 59.6992 151.764 60.3672C150.709 61.0234 149.52 61.3516 148.195 61.3516ZM162.1 61H158.021C157.928 61 157.881 60.9414 157.881 60.8242L157.916 36.0918C157.916 35.998 157.975 35.9512 158.092 35.9512H162.1C162.217 35.9512 162.275 35.998 162.275 36.0918L162.24 45.8828H167.637V36.0918C167.637 35.998 167.684 35.9512 167.777 35.9512H171.785C171.902 35.9512 171.961 35.998 171.961 36.0918L172.031 60.8242C172.031 60.9414 171.973 61 171.855 61H167.812C167.695 61 167.637 60.9414 167.637 60.8242V50.2422H162.24V60.8242C162.24 60.9414 162.193 61 162.1 61Z" fill="black"/>
<path d="M179.186 61H175.107C175.014 61 174.967 60.9531 174.967 60.8594V56.7812C174.967 56.6875 175.014 56.6406 175.107 56.6406H179.186C179.279 56.6406 179.326 56.6875 179.326 56.7812V60.8594C179.326 60.9531 179.279 61 179.186 61Z" fill="white"/>
<path d="M188.906 60.9648L182.455 61C182.338 61 182.279 60.9414 182.279 60.8242L182.35 36.0918C182.35 35.998 182.396 35.9512 182.49 35.9512L189.223 35.916C190.559 35.8809 191.766 36.1855 192.844 36.8301C193.934 37.4746 194.801 38.3477 195.445 39.4492C196.102 40.5391 196.43 41.7461 196.43 43.0703V53.4062C196.43 54.7891 196.096 56.0547 195.428 57.2031C194.748 58.3398 193.846 59.248 192.721 59.9277C191.596 60.5957 190.324 60.9414 188.906 60.9648ZM189.223 40.2227L186.709 40.2578L186.674 56.5703H188.906C189.797 56.5703 190.547 56.2598 191.156 55.6387C191.766 55.0176 192.07 54.2734 192.07 53.4062V43.0352C192.07 42.2734 191.789 41.6113 191.227 41.0488C190.664 40.4746 189.996 40.1992 189.223 40.2227ZM211.037 61H199.4C199.307 61 199.26 60.9414 199.26 60.8242L199.295 36.0918C199.295 35.998 199.342 35.9512 199.436 35.9512H211.002C211.096 35.9512 211.143 36.0098 211.143 36.127V40.1523C211.143 40.2461 211.096 40.293 211.002 40.293H203.619V45.918H211.002C211.096 45.918 211.143 45.9648 211.143 46.0586L211.178 50.1367C211.178 50.2305 211.131 50.2773 211.037 50.2773H203.619V56.5703H211.037C211.131 56.5703 211.178 56.6289 211.178 56.7461V60.8594C211.178 60.9531 211.131 61 211.037 61ZM222.779 61H218.42C218.314 61 218.256 60.9414 218.244 60.8242L213.27 36.0918C213.246 35.998 213.293 35.9512 213.41 35.9512H217.488C217.582 35.9512 217.641 35.998 217.664 36.0918L220.617 52.5801L223.5 36.0918C223.523 35.998 223.582 35.9512 223.676 35.9512H227.701C227.83 35.9512 227.877 35.998 227.842 36.0918L222.955 60.8242C222.943 60.9414 222.885 61 222.779 61Z" fill="#D50707"/>
<defs>
<filter id="filter0_d_156_481" x="-4.1" y="-0.0999999" width="101.2" height="101.2" filterUnits="userSpaceOnUse" color-interpolation-filters="sRGB">
<feFlood flood-opacity="0" result="BackgroundImageFix"/>
<feColorMatrix in="SourceAlpha" type="matrix" values="0 0 0 0 0 0 0 0 0 0 0 0 0 0 0 0 0 0 127 0" result="hardAlpha"/>
<feOffset dy="4"/>
<feGaussianBlur stdDeviation="2.05"/>
<feComposite in2="hardAlpha" operator="out"/>
<feColorMatrix type="matrix" values="0 0 0 0 0 0 0 0 0 0 0 0 0 0 0 0 0 0 0.25 0"/>
<feBlend mode="normal" in2="BackgroundImageFix" result="effect1_dropShadow_156_481"/>
<feBlend mode="normal" in="SourceGraphic" in2="effect1_dropShadow_156_481" result="shape"/>
</filter>
<filter id="filter1_d_156_481" x="58.12" y="53.9156" width="23.7471" height="23.6224" filterUnits="userSpaceOnUse" color-interpolation-filters="sRGB">
<feFlood flood-opacity="0" result="BackgroundImageFix"/>
<feColorMatrix in="SourceAlpha" type="matrix" values="0 0 0 0 0 0 0 0 0 0 0 0 0 0 0 0 0 0 127 0" result="hardAlpha"/>
<feOffset/>
<feGaussianBlur stdDeviation="5.3"/>
<feComposite in2="hardAlpha" operator="out"/>
<feColorMatrix type="matrix" values="0 0 0 0 1 0 0 0 0 1 0 0 0 0 1 0 0 0 1 0"/>
<feBlend mode="normal" in2="BackgroundImageFix" result="effect1_dropShadow_156_481"/>
<feBlend mode="normal" in="SourceGraphic" in2="effect1_dropShadow_156_481" result="shape"/>
</filter>
<filter id="filter2_d_156_481" x="49.9525" y="27.2062" width="23.7352" height="23.6868" filterUnits="userSpaceOnUse" color-interpolation-filters="sRGB">
<feFlood flood-opacity="0" result="BackgroundImageFix"/>
<feColorMatrix in="SourceAlpha" type="matrix" values="0 0 0 0 0 0 0 0 0 0 0 0 0 0 0 0 0 0 127 0" result="hardAlpha"/>
<feOffset/>
<feGaussianBlur stdDeviation="5.3"/>
<feComposite in2="hardAlpha" operator="out"/>
<feColorMatrix type="matrix" values="0 0 0 0 1 0 0 0 0 1 0 0 0 0 1 0 0 0 1 0"/>
<feBlend mode="normal" in2="BackgroundImageFix" result="effect1_dropShadow_156_481"/>
<feBlend mode="normal" in="SourceGraphic" in2="effect1_dropShadow_156_481" result="shape"/>
</filter>
<filter id="filter3_d_156_481" x="12.2169" y="41.5699" width="23.7352" height="23.6868" filterUnits="userSpaceOnUse" color-interpolation-filters="sRGB">
<feFlood flood-opacity="0" result="BackgroundImageFix"/>
<feColorMatrix in="SourceAlpha" type="matrix" values="0 0 0 0 0 0 0 0 0 0 0 0 0 0 0 0 0 0 127 0" result="hardAlpha"/>
<feOffset/>
<feGaussianBlur stdDeviation="5.3"/>
<feComposite in2="hardAlpha" operator="out"/>
<feColorMatrix type="matrix" values="0 0 0 0 1 0 0 0 0 1 0 0 0 0 1 0 0 0 1 0"/>
<feBlend mode="normal" in2="BackgroundImageFix" result="effect1_dropShadow_156_481"/>
<feBlend mode="normal" in="SourceGraphic" in2="effect1_dropShadow_156_481" result="shape"/>
</filter>
<filter id="filter4_d_156_481" x="25.2887" y="31.1471" width="23.7352" height="23.6868" filterUnits="userSpaceOnUse" color-interpolation-filters="sRGB">
<feFlood flood-opacity="0" result="BackgroundImageFix"/>
<feColorMatrix in="SourceAlpha" type="matrix" values="0 0 0 0 0 0 0 0 0 0 0 0 0 0 0 0 0 0 127 0" result="hardAlpha"/>
<feOffset/>
<feGaussianBlur stdDeviation="5.3"/>
<feComposite in2="hardAlpha" operator="out"/>
<feColorMatrix type="matrix" values="0 0 0 0 1 0 0 0 0 1 0 0 0 0 1 0 0 0 1 0"/>
<feBlend mode="normal" in2="BackgroundImageFix" result="effect1_dropShadow_156_481"/>
<feBlend mode="normal" in="SourceGraphic" in2="effect1_dropShadow_156_481" result="shape"/>
</filter>
<filter id="filter5_d_156_481" x="12.8373" y="21.5362" width="23.7471" height="23.6224" filterUnits="userSpaceOnUse" color-interpolation-filters="sRGB">
<feFlood flood-opacity="0" result="BackgroundImageFix"/>
<feColorMatrix in="SourceAlpha" type="matrix" values="0 0 0 0 0 0 0 0 0 0 0 0 0 0 0 0 0 0 127 0" result="hardAlpha"/>
<feOffset/>
<feGaussianBlur stdDeviation="5.3"/>
<feComposite in2="hardAlpha" operator="out"/>
<feColorMatrix type="matrix" values="0 0 0 0 1 0 0 0 0 1 0 0 0 0 1 0 0 0 1 0"/>
<feBlend mode="normal" in2="BackgroundImageFix" result="effect1_dropShadow_156_481"/>
<feBlend mode="normal" in="SourceGraphic" in2="effect1_dropShadow_156_481" result="shape"/>
</filter>
<filter id="filter6_d_156_481" x="34.6148" y="33.7794" width="23.7352" height="23.6868" filterUnits="userSpaceOnUse" color-interpolation-filters="sRGB">
<feFlood flood-opacity="0" result="BackgroundImageFix"/>
<feColorMatrix in="SourceAlpha" type="matrix" values="0 0 0 0 0 0 0 0 0 0 0 0 0 0 0 0 0 0 127 0" result="hardAlpha"/>
<feOffset/>
<feGaussianBlur stdDeviation="5.3"/>
<feComposite in2="hardAlpha" operator="out"/>
<feColorMatrix type="matrix" values="0 0 0 0 1 0 0 0 0 1 0 0 0 0 1 0 0 0 1 0"/>
<feBlend mode="normal" in2="BackgroundImageFix" result="effect1_dropShadow_156_481"/>
<feBlend mode="normal" in="SourceGraphic" in2="effect1_dropShadow_156_481" result="shape"/>
</filter>
<filter id="filter7_d_156_481" x="20.6278" y="52.4549" width="23.7471" height="23.6224" filterUnits="userSpaceOnUse" color-interpolation-filters="sRGB">
<feFlood flood-opacity="0" result="BackgroundImageFix"/>
<feColorMatrix in="SourceAlpha" type="matrix" values="0 0 0 0 0 0 0 0 0 0 0 0 0 0 0 0 0 0 127 0" result="hardAlpha"/>
<feOffset/>
<feGaussianBlur stdDeviation="5.3"/>
<feComposite in2="hardAlpha" operator="out"/>
<feColorMatrix type="matrix" values="0 0 0 0 1 0 0 0 0 1 0 0 0 0 1 0 0 0 1 0"/>
<feBlend mode="normal" in2="BackgroundImageFix" result="effect1_dropShadow_156_481"/>
<feBlend mode="normal" in="SourceGraphic" in2="effect1_dropShadow_156_481" result="shape"/>
</filter>
<filter id="filter8_d_156_481" x="38.9972" y="7.24277" width="23.7352" height="23.6868" filterUnits="userSpaceOnUse" color-interpolation-filters="sRGB">
<feFlood flood-opacity="0" result="BackgroundImageFix"/>
<feColorMatrix in="SourceAlpha" type="matrix" values="0 0 0 0 0 0 0 0 0 0 0 0 0 0 0 0 0 0 127 0" result="hardAlpha"/>
<feOffset/>
<feGaussianBlur stdDeviation="5.3"/>
<feComposite in2="hardAlpha" operator="out"/>
<feColorMatrix type="matrix" values="0 0 0 0 1 0 0 0 0 1 0 0 0 0 1 0 0 0 1 0"/>
<feBlend mode="normal" in2="BackgroundImageFix" result="effect1_dropShadow_156_481"/>
<feBlend mode="normal" in="SourceGraphic" in2="effect1_dropShadow_156_481" result="shape"/>
</filter>
<linearGradient id="paint0_linear_156_481" x1="47.5652" y1="1.94763" x2="47.5652" y2="79.4476" gradientUnits="userSpaceOnUse">
<stop offset="0.095" stop-color="#FFF50D"/>
<stop offset="0.4" stop-color="#FFB800"/>
<stop offset="0.59" stop-color="#FA3E02"/>
<stop offset="0.84" stop-color="#7D0303"/>
<stop offset="0.97"/>
</linearGradient>
</defs>
</svg>
