<svg width="553" height="352" viewBox="0 0 553 352" fill="none" xmlns="http://www.w3.org/2000/svg">
<g clip-path="url(#clip0_239_648)">
<path d="M31.0014 350.973C22.4703 350.271 14.9383 344.097 10.655 336.684C9.21855 334.198 8.23435 330.937 9.861 328.571C10.3266 327.894 10.9701 327.359 11.7205 327.024C12.4709 326.689 13.2991 326.568 14.1139 326.674C14.9287 326.78 15.6985 327.109 16.3383 327.625C16.9782 328.14 17.4634 328.822 17.7404 329.596C17.2165 326.692 16.9913 323.741 17.0685 320.791C17.1341 318.293 17.6059 315.469 19.6824 314.08C22.0913 312.469 25.5635 313.748 27.3157 316.057C29.0679 318.366 29.5433 321.369 29.9639 324.237C29.6206 323.024 29.5871 321.743 29.8665 320.513C30.1459 319.282 30.7293 318.142 31.5634 317.195C32.3974 316.249 33.4554 315.527 34.6405 315.095C35.8256 314.664 37.1001 314.536 38.3472 314.725C41.8755 315.258 44.6394 318.313 45.7179 321.715C46.7964 325.118 46.4597 328.807 45.7656 332.308C44.9516 336.413 43.6306 340.486 41.2524 343.929C38.8742 347.373 35.3417 350.149 31.2432 350.991L31.0014 350.973Z" fill="#F2F2F2"/>
<path d="M553 73.8346C553 89.1474 548.242 104.082 539.384 116.571C530.526 129.06 518.007 138.486 503.558 143.546C503.098 143.706 502.632 143.866 502.165 144.012V68.9866H405.53C405.558 68.5199 405.593 68.0532 405.635 67.5935H502.165V52.938C502.165 52.0144 501.798 51.1288 501.145 50.4757C500.492 49.8226 499.607 49.4556 498.683 49.4552H409.493C409.653 48.9885 409.82 48.5218 410.001 48.0621C416.043 31.8396 427.592 18.2563 442.629 9.68525C457.666 1.11419 475.235 -1.8997 492.268 1.17011C509.301 4.23992 524.714 13.1983 535.815 26.4801C546.916 39.7619 552.998 56.5228 553 73.8346Z" fill="#F2F2F2"/>
<path d="M498.683 48.0623H159.553C158.26 48.0637 157.021 48.5779 156.108 49.4919C155.194 50.406 154.68 51.6454 154.678 52.9381V282.801C154.68 284.094 155.194 285.333 156.108 286.247C157.021 287.161 158.26 287.675 159.553 287.677H498.683C499.976 287.675 501.215 287.161 502.129 286.247C503.042 285.333 503.557 284.094 503.558 282.801V52.9381C503.557 51.6454 503.042 50.406 502.129 49.4919C501.215 48.5779 499.976 48.0637 498.683 48.0623ZM502.165 282.801C502.165 283.724 501.798 284.61 501.145 285.263C500.492 285.916 499.607 286.283 498.683 286.284H159.553C158.629 286.283 157.744 285.916 157.091 285.263C156.438 284.61 156.071 283.724 156.071 282.801V52.9381C156.071 52.0146 156.438 51.1289 157.091 50.4759C157.744 49.8228 158.629 49.4557 159.553 49.4554H498.683C499.607 49.4557 500.492 49.8228 501.145 50.4759C501.798 51.1289 502.165 52.0146 502.165 52.9381V282.801Z" fill="#3F3D56"/>
<path d="M502.862 67.5935H155.375V68.9866H502.862V67.5935Z" fill="#3F3D56"/>
<path d="M167.213 62.6899C169.52 62.6899 171.391 60.8188 171.391 58.5106C171.391 56.2024 169.52 54.3313 167.213 54.3313C164.905 54.3313 163.035 56.2024 163.035 58.5106C163.035 60.8188 164.905 62.6899 167.213 62.6899Z" fill="#3F3D56"/>
<path d="M179.225 62.6899C181.533 62.6899 183.403 60.8188 183.403 58.5106C183.403 56.2024 181.533 54.3313 179.225 54.3313C176.918 54.3313 175.047 56.2024 175.047 58.5106C175.047 60.8188 176.918 62.6899 179.225 62.6899Z" fill="#3F3D56"/>
<path d="M191.238 62.6899C193.545 62.6899 195.416 60.8188 195.416 58.5106C195.416 56.2024 193.545 54.3313 191.238 54.3313C188.93 54.3313 187.059 56.2024 187.059 58.5106C187.059 60.8188 188.93 62.6899 191.238 62.6899Z" fill="#3F3D56"/>
<path d="M250.08 96.1245H188.8C187.508 96.1259 186.269 96.6401 185.355 97.5542C184.441 98.4683 183.927 99.7077 183.926 101V162.297C183.927 163.59 184.441 164.829 185.355 165.743C186.269 166.657 187.508 167.172 188.8 167.173H250.08C251.373 167.172 252.612 166.657 253.526 165.743C254.439 164.829 254.954 163.59 254.955 162.297V101C254.954 99.7077 254.439 98.4683 253.526 97.5542C252.612 96.6401 251.373 96.1259 250.08 96.1245ZM253.562 162.297C253.562 163.221 253.195 164.106 252.542 164.759C251.889 165.412 251.004 165.78 250.08 165.78H188.8C187.877 165.78 186.991 165.412 186.338 164.759C185.686 164.106 185.319 163.221 185.318 162.297V101C185.319 100.077 185.686 99.1912 186.338 98.5381C186.991 97.885 187.877 97.518 188.8 97.5176H250.08C251.004 97.518 251.889 97.885 252.542 98.5381C253.195 99.1912 253.562 100.077 253.562 101V162.297Z" fill="#3F3D56"/>
<path d="M360.106 96.4727H298.826C297.626 96.475 296.476 96.9527 295.628 97.8013C294.78 98.6499 294.302 99.8002 294.3 101V162.297C294.302 163.497 294.78 164.647 295.628 165.496C296.476 166.345 297.626 166.822 298.826 166.825H360.106C361.306 166.822 362.456 166.345 363.305 165.496C364.153 164.647 364.631 163.497 364.633 162.297V101C364.631 99.8002 364.153 98.6499 363.305 97.8013C362.456 96.9527 361.306 96.475 360.106 96.4727Z" fill="#FF0004"/>
<path d="M470.132 96.4727H408.852C407.652 96.475 406.502 96.9527 405.654 97.8013C404.806 98.6499 404.328 99.8002 404.326 101V162.297C404.328 163.497 404.806 164.647 405.654 165.496C406.502 166.345 407.652 166.822 408.852 166.825H470.132C471.332 166.822 472.482 166.345 473.33 165.496C474.179 164.647 474.656 163.497 474.659 162.297V101C474.656 99.8002 474.179 98.6499 473.33 97.8013C472.482 96.9527 471.332 96.475 470.132 96.4727Z" fill="#E6E6E6"/>
<path d="M250.081 188.418H188.8C187.601 188.42 186.451 188.898 185.602 189.746C184.754 190.595 184.276 191.745 184.274 192.945V254.242C184.276 255.442 184.754 256.592 185.602 257.441C186.451 258.29 187.601 258.767 188.8 258.77H250.081C251.28 258.767 252.43 258.29 253.279 257.441C254.127 256.592 254.605 255.442 254.607 254.242V192.945C254.605 191.745 254.127 190.595 253.279 189.746C252.43 188.898 251.28 188.42 250.081 188.418Z" fill="#E6E6E6"/>
<path d="M360.106 188.418H298.826C297.626 188.42 296.476 188.898 295.628 189.746C294.78 190.595 294.302 191.745 294.3 192.945V254.242C294.302 255.442 294.78 256.592 295.628 257.441C296.476 258.29 297.626 258.767 298.826 258.77H360.106C361.306 258.767 362.456 258.29 363.305 257.441C364.153 256.592 364.631 255.442 364.633 254.242V192.945C364.631 191.745 364.153 190.595 363.305 189.746C362.456 188.898 361.306 188.42 360.106 188.418Z" fill="#FF0004"/>
<path d="M470.132 188.418H408.852C407.652 188.42 406.502 188.898 405.654 189.746C404.806 190.595 404.328 191.745 404.326 192.945V254.242C404.328 255.442 404.806 256.592 405.654 257.441C406.502 258.29 407.652 258.767 408.852 258.77H470.132C471.332 258.767 472.482 258.29 473.33 257.441C474.179 256.592 474.656 255.442 474.659 254.242V192.945C474.656 191.745 474.179 190.595 473.33 189.746C472.482 188.898 471.332 188.42 470.132 188.418Z" fill="#E6E6E6"/>
<path d="M235.109 198.518H173.828C172.628 198.516 171.478 198.039 170.629 197.19C169.781 196.341 169.303 195.19 169.302 193.99V132.693C169.303 131.493 169.781 130.342 170.629 129.493C171.478 128.645 172.628 128.167 173.828 128.166H235.109C236.309 128.167 237.459 128.645 238.308 129.493C239.156 130.342 239.634 131.493 239.635 132.693V193.99C239.634 195.19 239.156 196.341 238.308 197.19C237.459 198.039 236.309 198.516 235.109 198.518Z" fill="#FF0004"/>
<path d="M141.186 342.766L149.347 340.26L143.57 307.579L131.524 311.277L141.186 342.766Z" fill="#A0616A"/>
<path d="M167.413 343.009L141.763 350.883L138.721 340.97L154.461 336.138C155.763 335.739 157.13 335.6 158.485 335.729C159.841 335.858 161.157 336.253 162.36 336.891C163.563 337.529 164.628 338.397 165.495 339.447C166.362 340.497 167.014 341.707 167.413 343.009Z" fill="#2F2E41"/>
<path d="M71.5502 342.954L80.0877 342.953L84.1489 310.014L71.5488 310.015L71.5502 342.954Z" fill="#A0616A"/>
<path d="M96.5527 350.882L69.7212 350.883L69.7207 340.514L86.1855 340.513C87.5469 340.513 88.895 340.781 90.1527 341.302C91.4105 341.823 92.5534 342.587 93.5161 343.55C94.4787 344.513 95.2424 345.656 95.7634 346.914C96.2845 348.172 96.5527 349.52 96.5527 350.882Z" fill="#2F2E41"/>
<path d="M70.9378 247.472C70.2364 246.857 69.6783 246.095 69.303 245.241C68.9276 244.387 68.7439 243.461 68.7651 242.528C68.7862 241.596 69.0115 240.679 69.4252 239.843C69.8388 239.006 70.4307 238.271 71.1592 237.688L77.7785 154.315L91.2398 157.679L80.4617 239.007C81.3592 240.296 81.7527 241.87 81.5678 243.43C81.3829 244.99 80.6323 246.428 79.4584 247.471C78.2844 248.514 76.7687 249.091 75.1983 249.091C73.6278 249.091 72.1119 248.515 70.9378 247.472Z" fill="#A0616A"/>
<path d="M97.8947 121.978C107.341 121.978 114.998 114.318 114.998 104.87C114.998 95.4213 107.341 87.7617 97.8947 87.7617C88.4487 87.7617 80.7913 95.4213 80.7913 104.87C80.7913 114.318 88.4487 121.978 97.8947 121.978Z" fill="#A0616A"/>
<path d="M83.0226 151.75C79.1634 146.451 79.0445 139.152 83.2016 134.083C85.9146 130.775 90.4526 128.127 98.029 128.127C118.224 128.127 125.884 144.148 125.884 144.148C125.884 144.148 134.24 159.472 129.366 173.403C124.491 187.335 124.491 188.728 124.491 188.728L92.4581 185.941C92.4581 185.941 97.862 172.128 83.0226 151.75Z" fill="#CCCCCC"/>
<path d="M73.1445 165.618L80.0453 143.035C80.5075 141.523 81.296 140.13 82.3553 138.957C83.4145 137.783 84.7185 136.856 86.1752 136.242C87.6318 135.628 89.2056 135.341 90.7852 135.402C92.3648 135.463 93.9118 135.87 95.3167 136.595C97.7543 137.858 99.6205 140 100.537 142.589C101.454 145.177 101.352 148.017 100.253 150.533L91.4795 170.518L73.1445 165.618Z" fill="#CCCCCC"/>
<path d="M123.795 185.245L150.953 325.949L136.329 330.128L100.814 237.486L84.798 332.218L69.478 334.307C69.478 334.307 62.7578 208.966 92.4581 185.941L123.795 185.245Z" fill="#2F2E41"/>
<path d="M162.882 178.65C162.635 178.945 162.411 179.26 162.212 179.59L127.718 181.263L121.075 160.98L109.542 166.463L120.397 196.673L163.058 188.328C164.06 189.423 165.372 190.186 166.819 190.517C168.266 190.848 169.779 190.73 171.158 190.179C172.536 189.629 173.714 188.672 174.535 187.435C175.357 186.199 175.782 184.741 175.755 183.257C175.728 181.773 175.25 180.332 174.385 179.126C173.519 177.92 172.307 177.006 170.91 176.506C169.512 176.006 167.996 175.943 166.562 176.326C165.128 176.709 163.845 177.52 162.882 178.65Z" fill="#A0616A"/>
<path d="M104.716 146.171C104.532 144.601 104.694 143.009 105.192 141.508C105.69 140.008 106.511 138.635 107.598 137.486C108.685 136.338 110.011 135.443 111.482 134.863C112.953 134.284 114.533 134.035 116.11 134.133C118.85 134.309 121.42 135.521 123.299 137.522C125.179 139.523 126.227 142.164 126.232 144.91V166.737L107.475 169.624L104.716 146.171Z" fill="#CCCCCC"/>
<path d="M101.656 122.133C99.0889 122.122 97.1086 119.418 97.2237 116.853C97.3387 114.288 99.0612 112.031 101.136 110.52C103.211 109.008 105.645 108.087 107.959 106.976C110.273 105.865 112.567 104.478 113.996 102.345C114.859 100.949 115.375 99.3656 115.499 97.7287C115.623 96.0917 115.352 94.449 114.709 92.9386C113.379 89.9177 111.096 87.4161 108.21 85.8169C103.922 83.3061 98.8453 82.5033 93.9921 83.5683C89.1388 84.6334 84.8647 87.488 82.0213 91.5637L79.0909 99.5447C76.105 103.136 75.6313 108.47 77.4668 112.765C79.3023 117.06 83.2106 120.292 87.6206 121.828C92.0951 123.266 96.8848 123.41 101.437 122.243" fill="#2F2E41"/>
<path d="M86.0249 95.5524C84.7652 93.5329 82.5818 92.2485 80.3245 91.4947C77.7095 90.6214 74.9283 90.3637 72.1974 90.7415C69.4666 91.1193 66.8597 92.1226 64.5798 93.6731C62.3 95.2235 60.4087 97.2794 59.0532 99.6807C57.6977 102.082 56.9145 104.764 56.7648 107.517C56.5255 111.916 57.9024 116.217 58.7114 120.547C59.5205 124.876 59.6814 129.659 57.2947 133.36C55.4768 136.18 52.4453 137.955 49.453 139.471C46.9591 140.734 44.2616 141.92 41.4774 141.668C38.6933 141.416 35.8951 139.211 35.9689 136.415C35.0369 138.42 34.4076 140.551 34.1016 142.74C33.9057 144.939 34.4474 147.31 36.0347 148.843C38.3418 151.071 41.9974 150.908 45.168 150.428C52.0321 149.387 58.9827 147.436 64.4055 143.1C69.8284 138.764 73.4267 131.624 71.9986 124.828C71.4021 121.989 70.0001 119.398 68.8672 116.727C67.7344 114.057 66.8499 111.136 67.3703 108.282C67.6784 106.812 68.3053 105.428 69.2068 104.226C70.1083 103.025 71.2625 102.036 72.5879 101.33C75.2682 99.9356 78.3352 99.4704 81.3082 100.007C83.2574 100.327 85.6912 100.824 86.8473 99.2216C87.1537 98.7141 87.3101 98.1302 87.2986 97.5374C87.2871 96.9447 87.108 96.3673 86.7821 95.8721C86.1151 94.8926 85.2657 94.0508 84.2803 93.3927" fill="#2F2E41"/>
<path d="M214.818 352H0.829127C0.720039 352 0.611953 351.979 0.511078 351.938C0.410203 351.896 0.318519 351.835 0.24127 351.758C0.164021 351.681 0.102729 351.589 0.0609091 351.489C0.0190897 351.388 -0.00244141 351.28 -0.00244141 351.171C-0.00244141 351.062 0.0190897 350.954 0.0609091 350.853C0.102729 350.752 0.164021 350.66 0.24127 350.583C0.318519 350.506 0.410203 350.445 0.511078 350.404C0.611953 350.362 0.720039 350.341 0.829127 350.341H214.818C214.928 350.341 215.036 350.362 215.136 350.404C215.237 350.445 215.329 350.506 215.406 350.583C215.483 350.66 215.545 350.752 215.587 350.853C215.628 350.954 215.65 351.062 215.65 351.171C215.65 351.28 215.628 351.388 215.587 351.489C215.545 351.589 215.483 351.681 215.406 351.758C215.329 351.835 215.237 351.896 215.136 351.938C215.036 351.979 214.928 352 214.818 352Z" fill="#3F3D56"/>
</g>
<defs>
<clipPath id="clip0_239_648">
<rect width="553" height="352" fill="white"/>
</clipPath>
</defs>
</svg>
